# xmcd
#
# Track frame offsets: 
#        150
#        13597
#        28656
#        41479
#        57566
#        76397
#        89228
#        101542
#        111339
#        139069
#        153886
#        173264
#        188686
#        218892
#        227442
#        241636
#        256116
#        270441
#        284756
#        298040
#        312084
#        325997
#        338287
#        341084
#
# Disc length: 4730 seconds
#
# Revision: 0
# Processed by: cddbd v1.5.2PL0 Copyright (c) Steve Scherf et al.
# Submitted via: ExactAudioCopyFreeDBPlugin 1.0
#
DISCID=4a127818
DTITLE=Mississippi Fred McDowell - The Alan Lomax Recordings, 1959
DYEAR=1959
DGENRE=Blues
TTITLE0=Good Morning Little Schoolgirl
TTITLE1=Shake 'Em On Down
TTITLE2=Drop Down Mama
TTITLE3=Worried Mind Blues
TTITLE4=Fred McDowell's Blues
TTITLE5=When The Train Comes Along
TTITLE6=Keep Your Lamps Trimmed And Burning
TTITLE7=Wished I Was In Heaven Sitting Down
TTITLE8=You Done Tol' Everybody
TTITLE9=Woke Up This Morning With My Mind On Jesus
TTITLE10=Goin' Down To The River
TTITLE11=When You Get Home, Please Write Me A Few Of Your Lines
TTITLE12=You Gonna Be Sorry
TTITLE13=Lord Have Mercy
TTITLE14=61 Highway Blues
TTITLE15=Soon One Mornin'
TTITLE16=Germany Blues
TTITLE17=Keep Your Lamps Trimmed And Burning [alt. version]
TTITLE18=Been Drinkin' Water Out Of A Hollow Log
TTITLE19=I Want Jesus To Walk With Me
TTITLE20=Freight Train Blues
TTITLE21=Shake 'Em On Down [alt. version]
TTITLE22=Keep Your Lamps Trimmed And Burning [instrumental]
TTITLE23=You Gotta Move [Live]
EXTD=
EXTT0=
EXTT1=
EXTT2=
EXTT3=
EXTT4=
EXTT5=
EXTT6=
EXTT7=
EXTT8=
EXTT9=
EXTT10=
EXTT11=
EXTT12=
EXTT13=
EXTT14=
EXTT15=
EXTT16=
EXTT17=
EXTT18=
EXTT19=
EXTT20=
EXTT21=
EXTT22=
EXTT23=
PLAYORDER=
